# xmcd
#
# Track frame offsets:
#	180
#	19478
#	34907
#	50865
#	64761
#	79271
#	93544
#	105743
#	116978
#	130387
#	147838
#	165243
#	178643
#	195360
#	207097
#	219019
#	238392
#	255355
#
# Disc length: 3570 seconds
#
# Revision: 1
# Processed by: cddbd v1.5.2PL0 Copyright (c) Steve Scherf et al.
# Submitted via: audiograbber 1.83.01
#
DISCID=050df012
DTITLE=JT156 - Just Tracks JTG156 Country Female
DYEAR=1900
DGENRE=Karaoke
TTITLE0=Leann Rimes - How Do I Live
TTITLE1=Shania Twain - You've Got A Way
TTITLE2=Dixie Chicks - Tonight The Heartache's On Me
TTITLE3=Wynonna - Come Some Rainy Day
TTITLE4=Faith Hill - This Kiss
TTITLE5=Martina McBride - Valentine
TTITLE6=Patsy Cline - Crazy
TTITLE7=Crystal Gayle - Don't It Make My Brown Eyes Blue
TTITLE8=Tisha Yearwood - Perfect Love
TTITLE9=Reba McEntire - One Honest Heart
TTITLE10=Mary Chapin Carpenter - Almost Home
TTITLE11=Pam Tillis - I Said A Prayer
TTITLE12=Shania Twain - That Don't Impress Me Much
TTITLE13=Patty Loveless - I Try To Think About Elvis
TTITLE14=Tammy Wynette - Stand By Your Man
TTITLE15=Trisha Yearwood - I'd Still Love You More
TTITLE16=S Twain and B White - From This Moment On
TTITLE17=Dolly Parton - I Will Always Love You
EXTD=
EXTT0=
EXTT1=
EXTT2=
EXTT3=
EXTT4=
EXTT5=
EXTT6=
EXTT7=
EXTT8=
EXTT9=
EXTT10=
EXTT11=
EXTT12=
EXTT13=
EXTT14=
EXTT15=
EXTT16=
EXTT17=
PLAYORDER=
